<mxfile host="65bd71144e">
    <diagram id="lD9RN59uFm-hQWqidAp6" name="第 1 页">
        <mxGraphModel dx="1502" dy="863" grid="0" gridSize="10" guides="1" tooltips="1" connect="1" arrows="1" fold="1" page="1" pageScale="1" pageWidth="1654" pageHeight="2336" math="0" shadow="0">
            <root>
                <mxCell id="0"/>
                <mxCell id="1" parent="0"/>
                <mxCell id="44" style="edgeStyle=orthogonalEdgeStyle;rounded=1;orthogonalLoop=1;jettySize=auto;html=1;entryX=0.5;entryY=0;entryDx=0;entryDy=0;dashed=1;fontFamily=Georgia;endArrow=none;endFill=0;strokeColor=#A7BFC9;strokeWidth=1;" parent="1" source="35" target="39" edge="1">
                    <mxGeometry relative="1" as="geometry"/>
                </mxCell>
                <mxCell id="35" value="&lt;div style=&quot;font-size: 10.5pt&quot;&gt;KafkaConsumerThread&lt;/div&gt;" style="rounded=0;whiteSpace=wrap;html=1;strokeColor=#FFFFFF;fillColor=#EDF2F4;fontStyle=1;fontFamily=Georgia;" parent="1" vertex="1">
                    <mxGeometry x="816" y="70" width="185" height="60" as="geometry"/>
                </mxCell>
                <mxCell id="43" style="edgeStyle=orthogonalEdgeStyle;rounded=1;orthogonalLoop=1;jettySize=auto;html=1;entryX=0.5;entryY=0;entryDx=0;entryDy=0;dashed=1;fontFamily=Georgia;endArrow=none;endFill=0;strokeColor=#A7BFC9;strokeWidth=1;" parent="1" source="37" target="40" edge="1">
                    <mxGeometry relative="1" as="geometry"/>
                </mxCell>
                <mxCell id="37" value="&lt;div style=&quot;font-size: 10.5pt&quot;&gt;KafkaFetcher&lt;/div&gt;" style="rounded=0;whiteSpace=wrap;html=1;strokeColor=#FFFFFF;fillColor=#EDF2F4;fontStyle=1;fontFamily=Georgia;" parent="1" vertex="1">
                    <mxGeometry x="566" y="70" width="185" height="60" as="geometry"/>
                </mxCell>
                <mxCell id="42" style="edgeStyle=orthogonalEdgeStyle;rounded=1;orthogonalLoop=1;jettySize=auto;html=1;entryX=0.5;entryY=0;entryDx=0;entryDy=0;fontFamily=Georgia;strokeColor=#A7BFC9;endArrow=none;endFill=0;dashed=1;" parent="1" source="38" target="41" edge="1">
                    <mxGeometry relative="1" as="geometry"/>
                </mxCell>
                <mxCell id="38" value="&lt;div style=&quot;font-size: 10.5pt&quot;&gt;FlinkKafkaConsumer&lt;/div&gt;" style="rounded=0;whiteSpace=wrap;html=1;strokeColor=#FFFFFF;fillColor=#EDF2F4;fontStyle=1;fontFamily=Georgia;" parent="1" vertex="1">
                    <mxGeometry x="316" y="70" width="185" height="60" as="geometry"/>
                </mxCell>
                <mxCell id="39" value="&lt;div style=&quot;font-size: 10.5pt&quot;&gt;KafkaConsumerThread&lt;/div&gt;" style="rounded=0;whiteSpace=wrap;html=1;strokeColor=#FFFFFF;fillColor=#EDF2F4;fontStyle=1;fontFamily=Georgia;" parent="1" vertex="1">
                    <mxGeometry x="816" y="408" width="185" height="60" as="geometry"/>
                </mxCell>
                <mxCell id="40" value="&lt;div style=&quot;font-size: 10.5pt&quot;&gt;KafkaFetcher&lt;/div&gt;" style="rounded=0;whiteSpace=wrap;html=1;strokeColor=#FFFFFF;fillColor=#EDF2F4;fontStyle=1;fontFamily=Georgia;" parent="1" vertex="1">
                    <mxGeometry x="566" y="408" width="185" height="60" as="geometry"/>
                </mxCell>
                <mxCell id="41" value="&lt;div style=&quot;font-size: 10.5pt&quot;&gt;FlinkKafkaConsumer&lt;/div&gt;" style="rounded=0;whiteSpace=wrap;html=1;strokeColor=#FFFFFF;fillColor=#EDF2F4;fontStyle=1;fontFamily=Georgia;" parent="1" vertex="1">
                    <mxGeometry x="316" y="408" width="185" height="60" as="geometry"/>
                </mxCell>
                <mxCell id="45" value="createFetcher" style="endArrow=block;html=1;dashed=1;fontFamily=Georgia;strokeWidth=1;strokeColor=#333333;endFill=1;" parent="1" edge="1">
                    <mxGeometry width="50" height="50" relative="1" as="geometry">
                        <mxPoint x="409" y="194" as="sourcePoint"/>
                        <mxPoint x="660" y="194" as="targetPoint"/>
                    </mxGeometry>
                </mxCell>
                <mxCell id="46" value="start consumer thread" style="endArrow=block;html=1;dashed=1;fontFamily=Georgia;strokeWidth=1;strokeColor=#333333;endFill=1;" parent="1" edge="1">
                    <mxGeometry width="50" height="50" relative="1" as="geometry">
                        <mxPoint x="659" y="232" as="sourcePoint"/>
                        <mxPoint x="910" y="232" as="targetPoint"/>
                    </mxGeometry>
                </mxCell>
                <mxCell id="47" value="&lt;div style=&quot;font-size: 10.5pt&quot;&gt;UserApp&lt;/div&gt;" style="rounded=0;whiteSpace=wrap;html=1;strokeColor=#FFFFFF;fillColor=#EDF2F4;fontStyle=1;fontFamily=Georgia;" parent="1" vertex="1">
                    <mxGeometry x="66" y="70" width="185" height="60" as="geometry"/>
                </mxCell>
                <mxCell id="48" value="&lt;div style=&quot;font-size: 10.5pt&quot;&gt;UserApp&lt;br&gt;&lt;/div&gt;" style="rounded=0;whiteSpace=wrap;html=1;strokeColor=#FFFFFF;fillColor=#EDF2F4;fontStyle=1;fontFamily=Georgia;" parent="1" vertex="1">
                    <mxGeometry x="66" y="408" width="185" height="60" as="geometry"/>
                </mxCell>
                <mxCell id="49" style="edgeStyle=orthogonalEdgeStyle;rounded=1;orthogonalLoop=1;jettySize=auto;html=1;entryX=0.5;entryY=0;entryDx=0;entryDy=0;fontFamily=Georgia;strokeColor=#A7BFC9;endArrow=none;endFill=0;dashed=1;exitX=0.5;exitY=1;exitDx=0;exitDy=0;" parent="1" source="47" target="48" edge="1">
                    <mxGeometry relative="1" as="geometry">
                        <mxPoint x="215" y="142" as="sourcePoint"/>
                        <mxPoint x="215" y="420" as="targetPoint"/>
                    </mxGeometry>
                </mxCell>
                <mxCell id="50" value="add source" style="endArrow=block;html=1;dashed=1;fontFamily=Georgia;strokeWidth=1;strokeColor=#333333;endFill=1;" parent="1" edge="1">
                    <mxGeometry width="50" height="50" relative="1" as="geometry">
                        <mxPoint x="159" y="157" as="sourcePoint"/>
                        <mxPoint x="410" y="157" as="targetPoint"/>
                    </mxGeometry>
                </mxCell>
                <mxCell id="51" value="poll and return records" style="endArrow=block;html=1;dashed=1;fontFamily=Georgia;strokeWidth=1;strokeColor=#333333;endFill=1;" parent="1" edge="1">
                    <mxGeometry width="50" height="50" relative="1" as="geometry">
                        <mxPoint x="908" y="264" as="sourcePoint"/>
                        <mxPoint x="160" y="264" as="targetPoint"/>
                    </mxGeometry>
                </mxCell>
                <mxCell id="52" value="checkpoint" style="endArrow=block;html=1;dashed=1;fontFamily=Georgia;strokeWidth=1;strokeColor=#333333;endFill=1;" parent="1" edge="1">
                    <mxGeometry width="50" height="50" relative="1" as="geometry">
                        <mxPoint x="159" y="299.9999999999999" as="sourcePoint"/>
                        <mxPoint x="410" y="299.9999999999999" as="targetPoint"/>
                    </mxGeometry>
                </mxCell>
                <mxCell id="54" value="doCommitInternalOffsetsToKafka" style="endArrow=block;html=1;dashed=1;fontFamily=Georgia;strokeWidth=1;strokeColor=#333333;endFill=1;" parent="1" edge="1">
                    <mxGeometry width="50" height="50" relative="1" as="geometry">
                        <mxPoint x="409" y="335" as="sourcePoint"/>
                        <mxPoint x="660" y="335" as="targetPoint"/>
                    </mxGeometry>
                </mxCell>
                <mxCell id="55" value="setOffsetsToCommit" style="endArrow=block;html=1;dashed=1;fontFamily=Georgia;strokeWidth=1;strokeColor=#333333;endFill=1;" parent="1" edge="1">
                    <mxGeometry width="50" height="50" relative="1" as="geometry">
                        <mxPoint x="659" y="371" as="sourcePoint"/>
                        <mxPoint x="910" y="371" as="targetPoint"/>
                    </mxGeometry>
                </mxCell>
            </root>
        </mxGraphModel>
    </diagram>
</mxfile>